<?xml version="1.0" encoding="iso-8859-1"?><!-- Generator: Adobe Illustrator 22.1.0, SVG Export Plug-In . SVG Version: 6.00 Build 0)  --><svg fill="#4D4D4D" xmlns="http://www.w3.org/2000/svg" xmlns:xlink="http://www.w3.org/1999/xlink" viewBox="0 0 24 24" width="100px" height="100px"><g id="Rounded"><path style="fill:none;stroke:#000000;stroke-width:2;stroke-linecap:round;stroke-miterlimit:10;" d="M21,8v10c0,1.105-0.895,2-2,2"/><path d="M18,18V5c0-1.105-0.895-2-2-2H4C2.895,3,2,3.895,2,5v13c0,1.657,1.343,3,3,3h14v-2C18.448,19,18,18.551,18,18z M13,18H7c-0.552,0-1-0.448-1-1v0c0-0.552,0.448-1,1-1h6c0.552,0,1,0.448,1,1v0C14,17.552,13.552,18,13,18z M13,14H7c-0.552,0-1-0.448-1-1v0c0-0.552,0.448-1,1-1h6c0.552,0,1,0.448,1,1v0C14,13.552,13.552,14,13,14z M13,9H7C6.448,9,6,8.552,6,8V7c0-0.552,0.448-1,1-1h6c0.552,0,1,0.448,1,1v1C14,8.552,13.552,9,13,9z"/></g></svg>